#!OML:ASF E:\acrobat2\Project_11_07_03\Capture day 1\Session 1\Acrobat.ASF
:FULLY-SPECIFIED
:DEGREES
1390
root 11.1529 4.15172 10.6304 -82.5439 2.91446 168.791
lowerback -15.933432066790624 -7.8088813389484 -2.6249175694672466
upperback -6.90301841403642 -8.104202584088476 8.576982576858107
thorax 1.042525637484409 -6.061322456232949 9.943685765620787
lowerneck -1.2115823219825064 -18.308846854927697 14.763186904582716
upperneck -32.093376282056234 -23.738874029301545 -0.15069081569994855
head -11.271371976849164 -8.92591213563605 -2.061141474858827
rclavicle 2.38542e-15 -1.58034e-14
rhumerus 0.8951102651751484 -2.4603117818917637 30.612772872867765
rradius 68.60768108724002
rwrist -28.12611078044481
rhand -24.708983032638287 -37.84850932608152
rfingers 8.150075276275768
rthumb 2.010962654383508 -68.68138674742104
lclavicle 2.38542e-15 -1.58034e-14
lhumerus -19.564607504809047 7.79725177951481 -23.353003994857968
lradius 34.97090682218132
lwrist 28.406848070996645
lhand -15.028546789452342 -30.962183183687024
lfingers 8.11306074975284
lthumb 9.921730212413616 -1.8423968981534695
rfemur 2.680581839809552 4.66627642038664 -0.907717691963155
rtibia 9.839841452177385
rfoot 25.909292898098048 -18.85589490128581
rtoes 24.77300210826762
lfemur -9.313586343442015 -10.459649963646672 -3.5165413586262266
ltibia 40.42875584226097
lfoot 44.23431302640673 8.887033169367031
ltoes 4.47688
1391
root 11.1529 4.15172 10.6304 -82.5439 2.91446 168.791
lowerback -15.914754179914846 -7.737033669766893 -2.623889100686268
upperback -6.9739964529680005 -8.154863434577058 8.484930578506427
thorax 1.1049547406826796 -6.030514756720155 9.999953946252328
lowerneck -1.1854055951449627 -18.30660324147807 14.830530629762045
upperneck -32.16561177159614 -23.668079442455056 -0.2236767441277872
head -11.194597783596125 -9.024402687392035 -2.14143085092158
rclavicle 2.38542e-15 -1.58034e-14
rhumerus 1.7578431928177625 -1.184388878674108 33.80521658567426
rradius 67.30868077090015
rwrist -28.16885705906779
rhand -24.68219377469867 -37.808858323305266
rfingers 8.065870177640505
rthumb 1.9654030839865775 -68.58677313722058
lclavicle 2.38542e-15 -1.58034e-14
lhumerus -21.253791039875704 10.856714369332654 -27.196995596429193
lradius 34.859981783832254
lwrist 28.471363137197695
lhand -15.055640533269521 -31.018005746126732
lfingers 8.160018510423319
lthumb 9.96756532878439 -1.9125724987464516
rfemur 2.782404622899236 4.614254326836924 -1.34872702526983
rtibia 12.311240018192944
rfoot 26.06231031535323 -18.545926266048625
rtoes 24.981895086980114
lfemur -9.507133499413534 -10.276222007295674 -3.856328745266141
ltibia 42.881636684958686
lfoot 44.73061978388125 9.323646458756437
ltoes 4.47688
1392
root 11.1529 4.15172 10.6304 -82.5439 2.91446 168.791
lowerback -16.01312257408426 -7.637748972678545 -2.528959589179886
upperback -7.049122483631441 -8.219620496837013 8.564866875726844
thorax 1.039368269221023 -5.965339416058551 9.986525844917416
lowerneck -1.1034785339516622 -18.30199284087176 14.922082103169974
upperneck -32.13251686644931 -23.649402523242145 -0.2977931718299625
head -11.129804871117253 -8.986682016721307 -2.2337521331030206
rclavicle 2.38542e-15 -1.58034e-14
rhumerus -0.006652585847980896 2.15905068208499 30.591781723472874
rradius 68.15152903077052
rwrist -28.231762132731106
rhand -24.74357342844277 -37.90863894773777
rfingers 8.11315140956039
rthumb 1.942327539713004 -68.5618558200004
lclavicle 2.38542e-15 -1.58034e-14
lhumerus -22.674026728562357 7.215858954739656 -23.669522199763378
lradius 32.593642797870174
lwrist 28.458610175863086
lhand -15.098084620989875 -30.976489660230982
lfingers 8.074857382428059
lthumb 9.923837996032889 -1.8136846800234392
rfemur 2.2891679166726093 4.465326610347317 -1.0895767048420786
rtibia 9.185250516698956
rfoot 26.404030493560274 -18.763277517537908
rtoes 24.726987903434033
lfemur -9.058688474059775 -10.627846558213296 -4.2314461874388005
ltibia 41.7728034467568
lfoot 44.596474576376394 9.461292173257158
ltoes 4.47688
1393
root 11.1529 4.15172 10.6304 -82.5439 2.91446 168.791
lowerback -16.025909198227794 -7.542673508138873 -2.449476347593208
upperback -7.0120066639062895 -8.313994160020085 8.619836718524162
thorax 1.008174549102743 -5.9582795363761685 9.92864953500017
lowerneck -1.174851322997775 -18.2175453299725 14.938932398330756
upperneck -32.05381049952744 -23.551079580584087 -0.26794760163494946
head -11.080835732321859 -8.895128889973833 -2.29754238454998
rclavicle 2.38542e-15 -1.58034e-14
rhumerus -0.7084045560825067 -1.5226104889122856 29.87034084574058
rradius 66.95886617566252
rwrist -28.300755992270787
rhand -24.687178815868066 -37.86552849544655
rfingers 8.065767322015299
rthumb 1.9610339533104337 -68.56015795872464
lclavicle 2.38542e-15 -1.58034e-14
lhumerus -23.585554395857827 6.536716134692757 -21.1168145537979
lradius 34.9213149634411
lwrist 28.393060918935834
lhand -15.130931409210609 -30.908423961281976
lfingers 7.988385124392862
lthumb 9.981692494313258 -1.789484357733154
rfemur 1.8685414340089448 4.916765767061742 -1.3820296139182273
rtibia 4.91114101006305
rfoot 26.759950014463715 -18.472617203036556
rtoes 25.17731516517324
lfemur -9.528776997710029 -10.945578191733516 -4.240896486695106
ltibia 40.372978880111454
lfoot 44.805183529552195 9.791646428813873
ltoes 4.47688
1394
root 11.1529 4.15172 10.6304 -82.5439 2.91446 168.791
lowerback -16.04115389768076 -7.63997273139157 -2.514671799376695
upperback -7.055734179714882 -8.291698835245944 8.616961253982192
thorax 1.0465054743101718 -5.961114288433893 9.934238115595745
lowerneck -1.2352574880101854 -18.142250252536098 14.940593896772901
upperneck -32.03100058007719 -23.588780899864155 -0.19354073465752722
head -10.983160041424028 -8.91872046142398 -2.3118676938382228
rclavicle 2.38542e-15 -1.58034e-14
rhumerus 0.5286651337594643 0.7727829927809862 30.302317969189396
rradius 69.49252631092747
rwrist -28.20547750727169
rhand -24.684996812103446 -37.84486489334194
rfingers 8.014497772298428
rthumb 1.9249691917525695 -68.64698025514937
lclavicle 2.38542e-15 -1.58034e-14
lhumerus -22.109254966782405 5.156775334126176 -23.979638331555435
lradius 36.70183820014999
lwrist 28.458317489986783
lhand -15.199034354404171 -30.932266614534278
lfingers 7.9312741108932645
lthumb 9.968102240168106 -1.7165852778119228
rfemur 2.256917308081326 5.029482445035841 -0.9909398301308103
rtibia 3.605101967616701
rfoot 26.699013311000392 -18.42941911221612
rtoes 25.102065066386253
lfemur -9.529761497386344 -10.568911570025723 -4.102512054786973
ltibia 42.27836816662801
lfoot 44.81897074405967 9.840553515724151
ltoes 4.47688
1395
root 11.1529 4.15172 10.6304 -82.5439 2.91446 168.791
lowerback -16.139963669452328 -7.545568748488191 -2.5441013173616938
upperback -7.140674456602491 -8.30450010745741 8.563112222629924
thorax 1.0902792358344955 -6.049896326946527 9.999390533794656
lowerneck -1.3271529176450123 -18.234449319041314 14.868736319755847
upperneck -31.99059986128534 -23.586967865073916 -0.252223060577286
head -10.935644420182998 -9.00757562857121 -2.3093185682086994
rclavicle 2.38542e-15 -1.58034e-14
rhumerus 0.26585798964937113 -2.9721160506218838 29.361831582267474
rradius 67.94266095966671
rwrist -28.19652099329726
rhand -24.76118378410796 -37.937350836297526
rfingers 8.058057918354923
rthumb 1.8258943479686622 -68.63276191960011
lclavicle 2.38542e-15 -1.58034e-14
lhumerus -19.63314290633362 0.8565076928141133 -27.73088199463634
lradius 39.1822047126187
lwrist 28.557708627046924
lhand -15.163544979381316 -30.857453733800757
lfingers 8.006753514013859
lthumb 9.939420028923777 -1.728759486042374
rfemur 2.426066351706042 5.496258288679353 -0.5782414944281561
rtibia 4.422030153287424
rfoot 26.491479083039913 -18.33038973203188
rtoes 25.01370502777437
lfemur -9.459489370712902 -10.788372678694541 -3.6425651696099246
ltibia 45.377419220454875
lfoot 44.85199433725803 9.675473700366037
ltoes 4.47688
